<?xml version="1.0" encoding="utf-8"?>
<!-- Generator: Adobe Illustrator 26.0.1, SVG Export Plug-In . SVG Version: 6.00 Build 0)  -->
<svg version="1.1" xmlns="http://www.w3.org/2000/svg" xmlns:xlink="http://www.w3.org/1999/xlink" x="0px" y="0px"
	 viewBox="0 0 300 67.2" enable-background="new 0 0 300 67.2" xml:space="preserve">
<g id="Calque_1">
	<rect x="-311.6" y="710.4" fill="none" width="178.2" height="52.7"/>
</g>
<g id="Layer_4">
</g>
<g id="Calque_2">
</g>
<g id="Calque_3">
	<g>
		<g>
			<path fill="#4EBCC2" d="M33.3,45.3c-2,0-3.9-0.5-5.5-1.3c-0.6-0.3-1.3-0.2-1.8,0.3L12.9,57.3c-0.7,0.7-0.6,1.7,0.2,2.3
				c5.6,4.3,12.6,6.8,20.2,6.8c3,0,5.8-0.4,8.5-1.1c0.9-0.2,1.4-1.2,1-2.1l-7.1-17.1c-0.3-0.6-0.9-1-1.6-0.9
				C33.9,45.3,33.6,45.3,33.3,45.3"/>
			<path fill="#BADFE1" d="M40.7,44.1l7.1,17.1c0.4,0.9,1.4,1.2,2.2,0.7c8.7-5.1,14.9-14,16.3-24.4c0.1-0.9-0.6-1.8-1.5-1.8H46.3
				c-0.7,0-1.2,0.4-1.4,1c-0.7,2.2-2,4.1-3.7,5.5C40.6,42.8,40.5,43.5,40.7,44.1"/>
			<path fill="#007788" d="M30.6,20.2V1.7c0-0.9-0.8-1.6-1.8-1.5C18.5,1.6,9.6,7.8,4.5,16.5c-0.5,0.8-0.1,1.8,0.7,2.2l17.1,7.1
				c0.6,0.2,1.3,0.1,1.7-0.4c1.4-1.7,3.4-3,5.5-3.7C30.2,21.5,30.6,20.9,30.6,20.2"/>
			<path fill="#009DB5" d="M21.2,33.2c0-0.3,0-0.6,0-0.9c0.1-0.7-0.3-1.3-0.9-1.6L3.2,23.6c-0.9-0.4-1.8,0.1-2.1,1
				C0.4,27.4,0,30.2,0,33.2c0,7.6,2.6,14.6,6.8,20.2c0.6,0.7,1.6,0.8,2.3,0.2l13.1-13.1c0.5-0.5,0.6-1.2,0.3-1.8
				C21.7,37,21.2,35.2,21.2,33.2"/>
			<path fill="#726AA5" d="M65,28.8H39.2c-0.8,0-1.5-0.7-1.5-1.5V1.5c0-0.8,0.7-1.5,1.5-1.5H65c0.8,0,1.5,0.7,1.5,1.5v25.7
				C66.5,28.1,65.8,28.8,65,28.8"/>
		</g>
		<g>
			<path fill="#726AA5" d="M102.5,42.4c0.1,6.1-3.9,12.2-11.9,12.2h-7.4v-24h7.3C98.4,30.5,102.4,36.4,102.5,42.4z M99.8,42.4
				c-0.1-4.7-3.2-9.2-9.1-9.2H86V52h4.6C96.9,52.1,99.9,47.2,99.8,42.4z"/>
			<path fill="#726AA5" d="M119.4,50.2l2.1,1.3c-1.7,2.3-4.2,3.4-7.1,3.4c-5.8,0-8.8-4.5-8.8-9c0-4.5,3-9,8.7-9
				c5.5,0,9.1,4.6,8.3,10.1h-14.5c0.2,2.9,2.4,5.5,6.2,5.5C116.4,52.5,118.3,51.7,119.4,50.2z M120.3,44.8c-0.3-3.2-2.6-5.4-5.9-5.5
				c-3.7,0-5.7,2.7-6.2,5.5H120.3z"/>
			<path fill="#726AA5" d="M137.6,49.8c0,3.6-3.5,5.1-6.2,5.1c-2.3,0-4.5-0.9-5.8-2.8l1.6-1.7c1.1,1.3,2.5,2.1,4.2,2.1
				c1.7,0,3.6-0.8,3.6-2.8c0-1.7-2.2-2.4-3.6-2.7c-2.8-0.5-5.4-1.7-5.4-4.9c0-3.3,3-5.2,6.1-5.2c1.7,0,3.7,0.5,5.1,2l-1.5,1.7
				c-1.2-1-2.3-1.3-3.6-1.3c-1.8,0-3.5,1-3.5,2.8c0,1.7,2,2.2,3.4,2.5C134.9,45.3,137.6,46.5,137.6,49.8z"/>
			<path fill="#726AA5" d="M141.4,34.5c0-1.2,0-2.6,0-3.8h2.8c0,1.2,0,2.6,0,3.8H141.4z M141.5,54.6V37.2h2.7v17.4H141.5z"/>
			<path fill="#726AA5" d="M163.8,54.3c0,4.8-3.2,7.1-7,7.1c-2.8,0-5.7-1.3-7.7-3.2l1.5-1.7c1.5,1.4,4,2.5,6.2,2.4
				c2.4,0,4.4-1.5,4.4-4.7v-0.4c-1.3,0.6-2.6,1-4,1c-5.9,0-9-4.6-9-9.1c0.1-4.4,3.2-8.8,9-8.8c2.2,0,4.4,0.2,6.7,1V54.3z
				 M150.8,45.8c0,3.2,2.1,6.7,6.4,6.7c1.3,0,2.7-0.3,4-0.7l0-12c-1.3-0.3-2.7-0.4-4-0.4C153,39.3,150.8,42.6,150.8,45.8z"/>
			<path fill="#726AA5" d="M169,38.2c2.3-0.8,4.4-1.3,6.9-1.3c4.8,0,8.8,2.7,8.8,7.8v9.9H182v-9.9c0-5.5-6.2-6.3-10.3-4.8v14.7H169
				V38.2z"/>
			<path fill="#726AA5" d="M202.2,50.2l2.1,1.3c-1.7,2.3-4.2,3.4-7.1,3.4c-5.8,0-8.8-4.5-8.8-9c0-4.5,3-9,8.7-9
				c5.5,0,9.1,4.6,8.3,10.1H191c0.2,2.9,2.4,5.5,6.2,5.5C199.1,52.5,201,51.7,202.2,50.2z M203.1,44.8c-0.3-3.2-2.6-5.4-5.9-5.5
				c-3.7,0-5.7,2.7-6.2,5.5H203.1z"/>
			<path fill="#726AA5" d="M211.9,37.2l0.3,2.2c1.7-2.9,5.7-3,8.2-1.8l-1,2.3c-3.5-1.7-7.1,0.3-7.1,4.2v10.4h-2.7V37.2H211.9z"/>
		</g>
		<g>
			<g>
				<path fill="#007788" stroke="#007788" stroke-width="0.7156" stroke-miterlimit="10" d="M85.9,25.1c0,0.6-0.5,1.2-1.2,1.2
					c-0.6,0-1.2-0.5-1.2-1.2V13.7c0-0.6,0.5-1.2,1.2-1.2c0.6,0,1.2,0.5,1.2,1.2V25.1z"/>
				<path fill="#007788" stroke="#007788" stroke-width="0.7156" stroke-miterlimit="10" d="M99.8,13.6v11.5c0,0.6-0.5,1.1-1.1,1.1
					c-0.4,0-0.7-0.2-0.9-0.5l-5.9-8.5v7.9c0,0.6-0.5,1.1-1.1,1.1c-0.6,0-1.1-0.5-1.1-1.1V13.6c0-0.6,0.5-1.1,1.1-1.1
					c0.4,0,0.7,0.2,0.9,0.5l5.9,8.6v-7.9c0-0.6,0.5-1.1,1.1-1.1C99.3,12.5,99.8,13,99.8,13.6z"/>
				<path fill="#007788" stroke="#007788" stroke-width="0.7156" stroke-miterlimit="10" d="M105.8,25.1c0,0.6-0.5,1.2-1.2,1.2
					s-1.2-0.5-1.2-1.2V13.8c0-0.6,0.5-1.2,1.2-1.2h6.3c0.6,0,1,0.5,1,1s-0.5,1-1,1h-5.1v3.7h3.8c0.6,0,1,0.5,1,1c0,0.6-0.5,1-1,1
					h-3.8V25.1z"/>
				<path fill="#007788" stroke="#007788" stroke-width="0.7156" stroke-miterlimit="10" d="M114.5,19.4c0-4.7,2.3-7,6.4-7
					c4,0,6.4,2.3,6.4,7c0,4.7-2.3,7-6.4,7C116.8,26.4,114.5,24.1,114.5,19.4z M116.9,19.4c0,3.3,1.3,4.9,3.9,4.9
					c2.6,0,3.9-1.6,3.9-4.9c0-3.3-1.3-4.9-3.9-4.9C118.2,14.5,116.9,16.1,116.9,19.4z"/>
				<path fill="#007788" stroke="#007788" stroke-width="0.7156" stroke-miterlimit="10" d="M132.7,21v4.2c0,0.6-0.5,1.2-1.2,1.2
					s-1.2-0.5-1.2-1.2V13.8c0-0.6,0.5-1.2,1.2-1.2h3.8c2.7,0,4.2,1.9,4.2,4.2c0,1.9-1.2,3.7-3.1,4l3,3.6c0.2,0.2,0.2,0.5,0.2,0.7
					c0,0.6-0.5,1.2-1.2,1.2c-0.3,0-0.7-0.2-0.9-0.4L134,21H132.7z M132.7,14.7v4.2h2.7c1.2,0,1.8-1,1.8-2.1c0-1.1-0.5-2.1-1.8-2.1
					H132.7z"/>
				<path fill="#007788" stroke="#007788" stroke-width="0.7156" stroke-miterlimit="10" d="M148.2,23.5l-3.1-5.6v7.3
					c0,0.6-0.5,1.1-1.1,1.1c-0.6,0-1.1-0.5-1.1-1.1V13.6c0-0.6,0.5-1.1,1.1-1.1c0.5,0,0.8,0.3,1,0.6l4.2,7.6l4.2-7.6
					c0.2-0.4,0.5-0.6,1-0.6c0.6,0,1.1,0.5,1.1,1.1v11.5c0,0.6-0.5,1.1-1.1,1.1c-0.6,0-1.1-0.5-1.1-1.1v-7.3l-3.1,5.6
					c-0.2,0.4-0.6,0.6-1,0.6C148.8,24,148.4,23.8,148.2,23.5z"/>
				<path fill="#007788" stroke="#007788" stroke-width="0.7156" stroke-miterlimit="10" d="M162,22.6l-1.2,2.9
					c-0.2,0.4-0.6,0.8-1.1,0.8c-0.6,0-1.1-0.5-1.1-1.1c0-0.1,0-0.3,0.1-0.4l4.7-11.5c0.1-0.3,0.4-0.7,1.1-0.7c0.6,0,0.9,0.4,1.1,0.7
					l4.7,11.5c0.1,0.1,0.1,0.3,0.1,0.4c0,0.6-0.5,1.1-1.1,1.1c-0.5,0-0.9-0.3-1.1-0.8l-1.2-2.9H162z M164.4,16.3l-1.6,4.2h3.3
					L164.4,16.3z"/>
				<path fill="#007788" stroke="#007788" stroke-width="0.7156" stroke-miterlimit="10" d="M176.8,14.7v10.4c0,0.6-0.5,1.2-1.2,1.2
					c-0.6,0-1.2-0.5-1.2-1.2V14.7h-3.1c-0.6,0-1-0.5-1-1c0-0.6,0.5-1,1-1h8.5c0.6,0,1,0.5,1,1c0,0.6-0.5,1-1,1H176.8z"/>
				<path fill="#007788" stroke="#007788" stroke-width="0.7156" stroke-miterlimit="10" d="M186.1,25.1c0,0.6-0.5,1.2-1.2,1.2
					s-1.2-0.5-1.2-1.2V13.7c0-0.6,0.5-1.2,1.2-1.2s1.2,0.5,1.2,1.2V25.1z"/>
				<path fill="#007788" stroke="#007788" stroke-width="0.7156" stroke-miterlimit="10" d="M189.3,19.4c0-4.7,2.3-7,6.4-7
					c4,0,6.4,2.3,6.4,7c0,4.7-2.3,7-6.4,7C191.6,26.4,189.3,24.1,189.3,19.4z M191.7,19.4c0,3.3,1.3,4.9,3.9,4.9
					c2.6,0,3.9-1.6,3.9-4.9c0-3.3-1.3-4.9-3.9-4.9C193,14.5,191.7,16.1,191.7,19.4z"/>
				<path fill="#007788" stroke="#007788" stroke-width="0.7156" stroke-miterlimit="10" d="M215.4,13.6v11.5c0,0.6-0.5,1.1-1.1,1.1
					c-0.4,0-0.7-0.2-0.9-0.5l-5.9-8.5v7.9c0,0.6-0.5,1.1-1.1,1.1c-0.6,0-1.1-0.5-1.1-1.1V13.6c0-0.6,0.5-1.1,1.1-1.1
					c0.4,0,0.7,0.2,0.9,0.5l5.9,8.6v-7.9c0-0.6,0.5-1.1,1.1-1.1C214.8,12.5,215.4,13,215.4,13.6z"/>
				<path fill="#007788" stroke="#007788" stroke-width="0.7156" stroke-miterlimit="10" d="M229.4,14.5c-1.7,0-2.3,0.8-2.3,1.6
					c0,2.6,7.3,1.4,7.3,6.4c0,2.4-1.7,4-5,4c-2.4,0-4.3-1.2-5.1-2.4c-0.1-0.2-0.2-0.4-0.2-0.6c0-0.6,0.5-1.1,1.1-1.1
					c0.4,0,0.7,0.2,0.9,0.4c0.8,0.8,1.9,1.5,3.3,1.5c1.8,0,2.7-0.6,2.7-1.8c0-2.9-7.3-1.6-7.3-6.4c0-2,1.4-3.7,4.6-3.7
					c2,0,3.7,0.7,4.5,1.9c0.1,0.2,0.2,0.4,0.2,0.6c0,0.6-0.5,1.1-1.1,1.1c-0.3,0-0.6-0.2-0.9-0.4C231.6,14.9,230.5,14.5,229.4,14.5z
					"/>
				<path fill="#007788" stroke="#007788" stroke-width="0.7156" stroke-miterlimit="10" d="M241.9,17.8l3-4.7
					c0.2-0.3,0.6-0.5,1-0.5c0.6,0,1.2,0.5,1.2,1.2c0,0.2-0.1,0.5-0.2,0.6l-3.8,5.7v5.1c0,0.6-0.5,1.2-1.2,1.2s-1.2-0.5-1.2-1.2V20
					l-3.8-5.7c-0.1-0.2-0.2-0.4-0.2-0.6c0-0.6,0.5-1.2,1.2-1.2c0.4,0,0.8,0.2,1,0.5L241.9,17.8z"/>
				<path fill="#007788" stroke="#007788" stroke-width="0.7156" stroke-miterlimit="10" d="M254.3,14.5c-1.7,0-2.3,0.8-2.3,1.6
					c0,2.6,7.3,1.4,7.3,6.4c0,2.4-1.7,4-5,4c-2.4,0-4.3-1.2-5.1-2.4c-0.1-0.2-0.2-0.4-0.2-0.6c0-0.6,0.5-1.1,1.1-1.1
					c0.4,0,0.7,0.2,0.9,0.4c0.8,0.8,1.9,1.5,3.3,1.5c1.8,0,2.7-0.6,2.7-1.8c0-2.9-7.3-1.6-7.3-6.4c0-2,1.4-3.7,4.6-3.7
					c2,0,3.7,0.7,4.5,1.9c0.1,0.2,0.2,0.4,0.2,0.6c0,0.6-0.5,1.1-1.1,1.1c-0.3,0-0.6-0.2-0.9-0.4C256.5,14.9,255.4,14.5,254.3,14.5z
					"/>
				<path fill="#007788" stroke="#007788" stroke-width="0.7156" stroke-miterlimit="10" d="M267.5,14.7v10.4c0,0.6-0.5,1.2-1.2,1.2
					s-1.2-0.5-1.2-1.2V14.7h-3.1c-0.6,0-1-0.5-1-1c0-0.6,0.5-1,1-1h8.5c0.6,0,1,0.5,1,1c0,0.6-0.5,1-1,1H267.5z"/>
				<path fill="#007788" stroke="#007788" stroke-width="0.7156" stroke-miterlimit="10" d="M276.8,18.3h3.8c0.6,0,1,0.5,1,1
					c0,0.6-0.5,1-1,1h-3.8v3.7h5.3c0.6,0,1,0.5,1,1s-0.5,1-1,1h-6.5c-0.6,0-1.2-0.5-1.2-1.2V13.8c0-0.6,0.5-1.2,1.2-1.2h6.3
					c0.6,0,1,0.5,1,1s-0.5,1-1,1h-5.1V18.3z"/>
				<path fill="#007788" stroke="#007788" stroke-width="0.7156" stroke-miterlimit="10" d="M291.6,23.5l-3.1-5.6v7.3
					c0,0.6-0.5,1.1-1.1,1.1c-0.6,0-1.1-0.5-1.1-1.1V13.6c0-0.6,0.5-1.1,1.1-1.1c0.5,0,0.8,0.3,1,0.6l4.2,7.6l4.2-7.6
					c0.2-0.4,0.5-0.6,1-0.6c0.6,0,1.1,0.5,1.1,1.1v11.5c0,0.6-0.5,1.1-1.1,1.1c-0.6,0-1.1-0.5-1.1-1.1v-7.3l-3.1,5.6
					c-0.2,0.4-0.6,0.6-1,0.6S291.8,23.8,291.6,23.5z"/>
			</g>
		</g>
	</g>
</g>
</svg>
